# xmcd
#
# Track frame offsets: 
#        150
#        5487
#        28910
#        46484
#        61251
#        80230
#        101544
#        122028
#        143422
#        156622
#        174125
#        188395
#        208174
#        223225
#        242969
#        258689
#
# Disc length: 3856 seconds
#
# Revision: 0
# Processed by: cddbd v1.5.2PL0 Copyright (c) Steve Scherf et al.
# Submitted via: ExactAudioCopy v1.0b3
#
DISCID=e90f0e10
DTITLE=Mike-D (BOSSHOG CORLEONE) - His Greatest Flows [CD2]
DYEAR=2003
DGENRE=Rap/Hiphop
TTITLE0=Intro
TTITLE1=Flow (We Some Ballers)
TTITLE2=Flow (Get Crunk)
TTITLE3=Flow (Magic Stick)
TTITLE4=Flow (Dipset Anthem)
TTITLE5=Flow (New York, New York)
TTITLE6=Flow (Snake)
TTITLE7=Flow (Pimpin)
TTITLE8=Flow (Throw A Ounce)
TTITLE9=Flow (I Know What You Want)
TTITLE10=Flow (My City)
TTITLE11=Flow (Freaks Come Out)
TTITLE12=Flow (24's)
TTITLE13=Flow (Like A Pimp)
TTITLE14=Flow (Way Of Life)
TTITLE15=Flow (Outro)
EXTD=
EXTT0=
EXTT1=
EXTT2=
EXTT3=
EXTT4=
EXTT5=
EXTT6=
EXTT7=
EXTT8=
EXTT9=
EXTT10=
EXTT11=
EXTT12=
EXTT13=
EXTT14=
EXTT15=
PLAYORDER=
